<?xml version="1.0" encoding="utf-8" standalone="yes"?>
<svg xmlns="http://www.w3.org/2000/svg" xmlns:xlink="http://www.w3.org/1999/xlink" version="1.1" width="123" height="43">
	<defs>
		<clipPath id="clip001">
			<path d="M0,0 L1333.333374023,0 L1333.333374023,1333.333374023 L0,1333.333374023 Z" clip-rule="evenodd" />
		</clipPath>
		<clipPath id="clip002">
			<path d="M8.230427742,23.391805649 L1333.333374023,23.391805649 L1333.333374023,1333.333374023 L8.230427742,1333.333374023 Z" clip-rule="evenodd" />
		</clipPath>
		<clipPath id="clip003">
			<path d="M8.230427742,23.391805649 L1333.333374023,23.391805649 L1333.333374023,1333.333374023 L8.230427742,1333.333374023 Z" clip-rule="evenodd" />
		</clipPath>
		<clipPath id="clip004">
			<path d="M8.230427742,23.391805649 L1333.333374023,23.391805649 L1333.333374023,1333.333374023 L8.230427742,1333.333374023 Z" clip-rule="evenodd" />
		</clipPath>
		<clipPath id="clip005">
			<path d="M8.230427742,23.391805649 L1333.333374023,23.391805649 L1333.333374023,1333.333374023 L8.230427742,1333.333374023 Z" clip-rule="evenodd" />
		</clipPath>
	</defs>
	<g>
		<g>
			<g transform="matrix(0.092500001,0,0,0.032200001,0,0)" clip-path="url(#clip001)">
				<g>
					<g clip-path="url(#clip002)">
						<path d="M28.806558609,678.362609863 C28.809242249,1007.792480469 122.772605896,1274.846191406 238.683105469,1274.853881836 L238.683105469,1274.853881836 L1102.880615234,1274.853881836 L1102.880615234,1274.853881836 C1218.791137695,1274.846191406 1312.754516602,1007.792480469 1312.757202148,678.362609863 L1312.757202148,678.362609863 C1312.754516602,348.932861328 1218.791137695,81.879066467 1102.880615234,81.871421814 L1102.880615234,81.871421814 L238.683105469,81.871421814 L238.683105469,81.871421814 C122.772605896,81.879066467 28.809242249,348.932861328 28.806558609,678.362609863 Z" fill="#0ebec7" fill-rule="evenodd" />
					</g>
					<g clip-path="url(#clip003)">
						<path d="M316.872406006,666.666748047 C316.872406006,550.396240234 283.708312988,456.140411377 242.798339844,456.140411377 L242.798339844,456.140411377 C201.88835144,456.140411377 168.724258423,550.396240234 168.724258423,666.666748047 L168.724258423,666.666748047 C168.724258423,782.937194824 201.88835144,877.193054199 242.798339844,877.193054199 L242.798339844,877.193054199 C283.708312988,877.193054199 316.872406006,782.937194824 316.872406006,666.666748047 Z" fill="#ffffff" fill-rule="evenodd" />
					</g>
					<g clip-path="url(#clip004)">
						<path d="M1111.485229492,238.683166504 C1111.485229492,215.748779297 1092.893188477,197.156784058 1069.958862305,197.156784058 L1069.958862305,197.156784058 C1047.024414063,197.156784058 1028.432495117,215.748779297 1028.432495117,238.683166504 L1028.432495117,238.683166504 C1028.432495117,261.617523193 1047.024414063,280.209533691 1069.958862305,280.209533691 L1069.958862305,280.209533691 C1092.893188477,280.209533691 1111.485229492,261.617523193 1111.485229492,238.683166504 Z" transform="matrix(1,0,0,2.84210515,0,0)" stroke-width="32.92181015" stroke-linecap="round" stroke-linejoin="round" stroke-miterlimit="13.333333015" stroke="#ffffff" fill="none" fill-rule="evenodd" />
					</g>
					<g clip-path="url(#clip005)">
						<path d="M1172.39050293,280.209533691 C1168.620727539,288.751373291 1170.42956543,298.72769165 1176.958496094,305.402191162 L1176.958496094,305.402191162 L1177.78894043,306.232727051 L1177.78894043,306.232727051 C1182.987426758,311.425415039 1185.908325195,318.471679688 1185.908325195,325.819335938 L1185.908325195,325.819335938 C1185.908325195,333.166992188 1182.987426758,340.213256836 1177.78894043,345.405914307 L1177.78894043,345.405914307 C1172.596313477,350.604400635 1165.550048828,353.525360107 1158.202392578,353.525360107 L1158.202392578,353.525360107 C1150.854736328,353.525360107 1143.80847168,350.604400635 1138.615844727,345.405914307 L1138.615844727,345.405914307 L1137.78527832,344.575408936 L1137.78527832,344.575408936 C1131.110717773,338.046539307 1121.134399414,336.237640381 1112.592651367,340.007537842 L1112.592651367,340.007537842 C1104.225463867,343.593597412 1098.786743164,351.805938721 1098.750488281,360.90914917 L1098.750488281,360.90914917 L1098.750488281,363.262298584 L1098.750488281,363.262298584 C1098.750488281,378.551879883 1086.355834961,390.946533203 1071.06628418,390.946533203 L1071.06628418,390.946533203 C1055.776611328,390.946533203 1043.381958008,378.551879883 1043.381958008,363.262298584 L1043.381958008,363.262298584 L1043.381958008,362.016479492 L1043.381958008,362.016479492 C1043.162719727,352.640838623 1037.23425293,344.352081299 1028.432495117,341.114898682 L1028.432495117,341.114898682 C1019.890625,337.345031738 1009.914306641,339.153930664 1003.239807129,345.682769775 L1003.239807129,345.682769775 L1002.409240723,346.513305664 L1002.409240723,346.513305664 C997.21661377,351.711791992 990.170349121,354.632720947 982.822692871,354.632720947 L982.822692871,354.632720947 C975.475036621,354.632720947 968.428710938,351.711791992 963.236083984,346.513305664 L963.236083984,346.513305664 C958.037597656,341.320617676 955.116638184,334.274353027 955.116638184,326.926727295 L955.116638184,326.926727295 C955.116638184,319.579071045 958.037597656,312.532806396 963.236083984,307.340087891 L963.236083984,307.340087891 L964.066589355,306.509552002 L964.066589355,306.509552002 C970.595458984,299.835083008 972.40435791,289.858734131 968.634521484,281.316894531 L968.634521484,281.316894531 C965.048400879,272.949737549 956.836120605,267.511077881 947.732910156,267.474761963 L947.732910156,267.474761963 L945.379699707,267.474761963 L945.379699707,267.474761963 C930.090148926,267.474761963 917.695495605,255.080123901 917.695495605,239.790527344 L917.695495605,239.790527344 C917.695495605,224.500930786 930.090148926,212.106277466 945.379699707,212.106277466 L945.379699707,212.106277466 L946.625488281,212.106277466 L946.625488281,212.106277466 C956.001220703,211.886978149 964.289978027,205.958602905 967.527099609,197.156784058 L967.527099609,197.156784058 C971.296936035,188.614944458 969.488098145,178.63861084 962.959228516,171.964111328 L962.959228516,171.964111328 L962.128662109,171.133605957 L962.128662109,171.133605957 C956.930236816,165.94090271 954.009277344,158.894638062 954.009277344,151.54699707 L954.009277344,151.54699707 C954.009277344,144.199325562 956.930236816,137.153060913 962.128662109,131.960388184 L962.128662109,131.960388184 C967.321350098,126.761924744 974.367675781,123.840965271 981.715332031,123.840965271 L981.715332031,123.840965271 C989.062988281,123.840965271 996.109191895,126.761924744 1001.301940918,131.960388184 L1001.301940918,131.960388184 L1002.132385254,132.790893555 L1002.132385254,132.790893555 C1008.806945801,139.319763184 1018.78326416,141.128646851 1027.325073242,137.358810425 L1027.325073242,137.358810425 L1028.432495117,137.358810425 L1028.432495117,137.358810425 C1036.799682617,133.772766113 1042.23828125,125.560386658 1042.274536133,116.457191467 L1042.274536133,116.457191467 L1042.274536133,114.104042053 L1042.274536133,114.104042053 C1042.274536133,98.814453125 1054.669311523,86.419799805 1069.958862305,86.419799805 L1069.958862305,86.419799805 C1085.248413086,86.419799805 1097.643066406,98.814453125 1097.643066406,114.104042053 L1097.643066406,114.104042053 L1097.643066406,115.349815369 L1097.643066406,115.349815369 C1097.679443359,124.45300293 1103.118041992,132.665359497 1111.485229492,136.251449585 L1111.485229492,136.251449585 C1120.026977539,140.021286011 1130.003417969,138.212387085 1136.677856445,131.683532715 L1136.677856445,131.683532715 L1137.508422852,130.853012085 L1137.508422852,130.853012085 C1142.701049805,125.654541016 1149.747436523,122.733604431 1157.095092773,122.733604431 L1157.095092773,122.733604431 C1164.442749023,122.733604431 1171.488891602,125.654541016 1176.681640625,130.853012085 L1176.681640625,130.853012085 C1181.880004883,136.045669556 1184.801025391,143.091934204 1184.801025391,150.439620972 L1184.801025391,150.439620972 C1184.801025391,157.787277222 1181.880004883,164.83354187 1176.681640625,170.026229858 L1176.681640625,170.026229858 L1175.851074219,170.856750488 L1175.851074219,170.856750488 C1169.322265625,177.53125 1167.513305664,187.507568359 1171.283203125,196.049423218 L1171.283203125,196.049423218 L1171.283203125,197.156784058 L1171.283203125,197.156784058 C1174.869262695,205.52394104 1183.081665039,210.962600708 1192.184814453,210.998901367 L1192.184814453,210.998901367 L1194.537963867,210.998901367 L1194.537963867,210.998901367 C1209.827514648,210.998901367 1222.222167969,223.393569946 1222.222167969,238.683166504 L1222.222167969,238.683166504 C1222.222167969,253.972732544 1209.827514648,266.367401123 1194.537963867,266.367401123 L1194.537963867,266.367401123 L1193.292114258,266.367401123 L1193.292114258,266.367401123 C1184.188964844,266.403717041 1175.97668457,271.842376709 1172.39050293,280.209533691 Z" transform="matrix(1,0,0,2.84210515,0,0)" stroke-width="32.92181015" stroke-linecap="round" stroke-linejoin="round" stroke-miterlimit="13.333333015" stroke="#ffffff" fill="none" fill-rule="evenodd" />
					</g>
				</g>
			</g>
		</g>
	</g>
</svg>