<?xml version="1.0" encoding="utf-8" standalone="yes"?>
<svg xmlns="http://www.w3.org/2000/svg" xmlns:xlink="http://www.w3.org/1999/xlink" version="1.1" width="110" height="75">
	<defs>
		<clipPath id="clip006">
			<path d="M0,0 L1333.333374023,0 L1333.333374023,1333.333374023 L0,1333.333374023 Z" clip-rule="evenodd" />
		</clipPath>
		<clipPath id="clip007">
			<path d="M8.230427742,12.12121582 L1333.333374023,12.12121582 L1333.333374023,1333.333374023 L8.230427742,1333.333374023 Z" clip-rule="evenodd" />
		</clipPath>
		<clipPath id="clip008">
			<path d="M8.230427742,12.12121582 L1333.333374023,12.12121582 L1333.333374023,1333.333374023 L8.230427742,1333.333374023 Z" clip-rule="evenodd" />
		</clipPath>
		<clipPath id="clip009">
			<path d="M8.230427742,12.12121582 L1333.333374023,12.12121582 L1333.333374023,1333.333374023 L8.230427742,1333.333374023 Z" clip-rule="evenodd" />
		</clipPath>
		<clipPath id="clip010">
			<path d="M8.230427742,12.12121582 L1333.333374023,12.12121582 L1333.333374023,1333.333374023 L8.230427742,1333.333374023 Z" clip-rule="evenodd" />
		</clipPath>
		<clipPath id="clip011">
			<path d="M8.230427742,12.12121582 L1333.333374023,12.12121582 L1333.333374023,1333.333374023 L8.230427742,1333.333374023 Z" clip-rule="evenodd" />
		</clipPath>
		<clipPath id="clip012">
			<path d="M8.230427742,12.12121582 L1333.333374023,12.12121582 L1333.333374023,1333.333374023 L8.230427742,1333.333374023 Z" clip-rule="evenodd" />
		</clipPath>
	</defs>
	<g>
		<g>
			<g transform="matrix(0.082649998,0,0,0.055950001,0,0)" clip-path="url(#clip006)">
				<g>
					<g clip-path="url(#clip007)">
						<path d="M28.806558609,993.93939209 C28.809242249,1164.643920898 122.772605896,1303.026245117 238.683105469,1303.030273438 L238.683105469,1303.030273438 L1102.880615234,1303.030273438 L1102.880615234,1303.030273438 C1218.791137695,1303.026245117 1312.754516602,1164.643920898 1312.757202148,993.93939209 L1312.757202148,993.93939209 C1312.754516602,823.234863281 1218.791137695,684.852355957 1102.880615234,684.848449707 L1102.880615234,684.848449707 L238.683105469,684.848449707 L238.683105469,684.848449707 C122.772605896,684.852355957 28.809242249,823.234863281 28.806558609,993.93939209 Z" fill="#0ebec7" fill-rule="evenodd" />
					</g>
					<g clip-path="url(#clip008)">
						<path d="M316.872406006,987.878845215 C316.872406006,927.629577637 283.708312988,878.787902832 242.798339844,878.787902832 L242.798339844,878.787902832 C201.88835144,878.787902832 168.724258423,927.629577637 168.724258423,987.878845215 L168.724258423,987.878845215 C168.724258423,1048.128051758 201.88835144,1096.969726563 242.798339844,1096.969726563 L242.798339844,1096.969726563 C283.708312988,1096.969726563 316.872406006,1048.128051758 316.872406006,987.878845215 Z" fill="#ffffff" fill-rule="evenodd" />
					</g>
					<g clip-path="url(#clip009)">
						<path d="M1292.041259766,-406.711669922 L1292.041259766,-321.209136963 L1292.041259766,-321.209136963 L1377.543823242,-321.209136963 " transform="matrix(0.618771553,0.880014658,-0.597540855,0.911281765,0,0)" stroke-width="47.840694427" stroke-linecap="round" stroke-linejoin="round" stroke-miterlimit="13.333333015" stroke="#ffffff" fill="none" fill-rule="evenodd" />
					</g>
					<g clip-path="url(#clip010)">
						<path d="M1327.45324707,-244.389846802 C1346.245849609,-190.514053345 1398.049682617,-164.235794067 1454.509765625,-167.517990112 L1454.509765625,-167.517990112 C1510.969848633,-170.800186157 1558.475463867,-211.401855469 1571.024291992,-267.099609375 L1571.024291992,-267.099609375 C1583.572875977,-322.797363281 1558.139770508,-380.164031982 1508.645507813,-407.79989624 L1508.645507813,-407.79989624 C1459.151245117,-435.435699463 1397.52746582,-426.67855835 1357.504272461,-386.321533203 L1357.504272461,-386.321533203 L1292.041137695,-324.190887451 " transform="matrix(0.618771553,0.880014658,-0.597540855,0.911281765,0,0)" stroke-width="47.840694427" stroke-linecap="round" stroke-linejoin="round" stroke-miterlimit="13.333333015" stroke="#ffffff" fill="none" fill-rule="evenodd" />
					</g>
					<g clip-path="url(#clip011)">
						<path d="M28.806558609,351.515136719 C28.809242249,522.219665527 122.772605896,660.602111816 238.683105469,660.606018066 L238.683105469,660.606018066 L1102.880615234,660.606018066 L1102.880615234,660.606018066 C1218.791137695,660.602111816 1312.754516602,522.219665527 1312.757202148,351.515136719 L1312.757202148,351.515136719 C1312.754516602,180.810592651 1218.791137695,42.428142548 1102.880615234,42.424194336 L1102.880615234,42.424194336 L238.683105469,42.424194336 L238.683105469,42.424194336 C122.772605896,42.428142548 28.809242249,180.810592651 28.806558609,351.515136719 Z" fill="#0ebec7" fill-rule="evenodd" />
					</g>
					<g clip-path="url(#clip012)">
						<path d="M316.872406006,345.454559326 C316.872406006,285.205291748 283.708312988,236.363632202 242.798339844,236.363632202 L242.798339844,236.363632202 C201.88835144,236.363632202 168.724258423,285.205291748 168.724258423,345.454559326 L168.724258423,345.454559326 C168.724258423,405.703765869 201.88835144,454.545440674 242.798339844,454.545440674 L242.798339844,454.545440674 C283.708312988,454.545440674 316.872406006,405.703765869 316.872406006,345.454559326 Z" fill="#ffffff" fill-rule="evenodd" />
					</g>
				</g>
			</g>
		</g>
	</g>
</svg>