<?xml version="1.0" encoding="utf-8" standalone="yes"?>
<svg xmlns="http://www.w3.org/2000/svg" xmlns:xlink="http://www.w3.org/1999/xlink" version="1.1" width="124" height="43">
	<defs>
		<clipPath id="clip013">
			<path d="M0,0 L1333.333374023,0 L1333.333374023,1333.333374023 L0,1333.333374023 Z" clip-rule="evenodd" />
		</clipPath>
		<clipPath id="clip014">
			<path d="M8.230427742,23.391805649 L1333.333374023,23.391805649 L1333.333374023,1333.333374023 L8.230427742,1333.333374023 Z" clip-rule="evenodd" />
		</clipPath>
		<clipPath id="clip015">
			<path d="M8.230427742,23.391805649 L1333.333374023,23.391805649 L1333.333374023,1333.333374023 L8.230427742,1333.333374023 Z" clip-rule="evenodd" />
		</clipPath>
		<clipPath id="clip016">
			<path d="M8.230427742,23.391805649 L1333.333374023,23.391805649 L1333.333374023,1333.333374023 L8.230427742,1333.333374023 Z" clip-rule="evenodd" />
		</clipPath>
		<clipPath id="clip017">
			<path d="M8.230427742,23.391805649 L1333.333374023,23.391805649 L1333.333374023,1333.333374023 L8.230427742,1333.333374023 Z" clip-rule="evenodd" />
		</clipPath>
	</defs>
	<g>
		<g>
			<g transform="matrix(0.093150005,0,0,0.032400001,0,0)" clip-path="url(#clip013)">
				<g>
					<g clip-path="url(#clip014)">
						<path d="M28.806558609,678.362609863 C28.809242249,1007.792480469 122.772605896,1274.846191406 238.683105469,1274.853881836 L238.683105469,1274.853881836 L1102.880615234,1274.853881836 L1102.880615234,1274.853881836 C1218.791137695,1274.846191406 1312.754516602,1007.792480469 1312.757202148,678.362609863 L1312.757202148,678.362609863 C1312.754516602,348.932861328 1218.791137695,81.879066467 1102.880615234,81.871421814 L1102.880615234,81.871421814 L238.683105469,81.871421814 L238.683105469,81.871421814 C122.772605896,81.879066467 28.809242249,348.932861328 28.806558609,678.362609863 Z" fill="#0ebec7" fill-rule="evenodd" />
					</g>
					<g clip-path="url(#clip015)">
						<path d="M316.872406006,666.666748047 C316.872406006,550.396240234 283.708312988,456.140411377 242.798339844,456.140411377 L242.798339844,456.140411377 C201.88835144,456.140411377 168.724258423,550.396240234 168.724258423,666.666748047 L168.724258423,666.666748047 C168.724258423,782.937194824 201.88835144,877.193054199 242.798339844,877.193054199 L242.798339844,877.193054199 C283.708312988,877.193054199 316.872406006,782.937194824 316.872406006,666.666748047 Z" fill="#ffffff" fill-rule="evenodd" />
					</g>
					<g clip-path="url(#clip016)">
						<path d="M1064.044311523,-873.516906738 L1064.044311523,-776.707824707 L1064.044311523,-776.707824707 L1160.853393555,-776.707824707 " transform="matrix(0.546503782,1.499928594,-0.527752697,1.553221464,0,0)" stroke-width="54.166976929" stroke-linecap="round" stroke-linejoin="round" stroke-miterlimit="13.333333015" stroke="#ffffff" fill="none" fill-rule="evenodd" />
					</g>
					<g clip-path="url(#clip017)">
						<path d="M1104.139038086,-689.730285645 C1125.416625977,-628.730224609 1184.070678711,-598.976989746 1247.996948242,-602.693237305 L1247.996948242,-602.693237305 C1311.923217773,-606.409484863 1365.71081543,-652.380126953 1379.918945313,-715.44317627 L1379.918945313,-715.44317627 C1394.126953125,-778.506164551 1365.330566406,-843.45880127 1309.291381836,-874.749084473 L1309.291381836,-874.749084473 C1253.252075195,-906.039367676 1183.479614258,-896.124206543 1138.163818359,-850.430603027 L1138.163818359,-850.430603027 L1064.044067383,-780.083984375 " transform="matrix(0.546503782,1.499928594,-0.527752697,1.553221464,0,0)" stroke-width="54.166976929" stroke-linecap="round" stroke-linejoin="round" stroke-miterlimit="13.333333015" stroke="#ffffff" fill="none" fill-rule="evenodd" />
					</g>
				</g>
			</g>
		</g>
	</g>
</svg>